<?xml version="1.0" encoding="iso-8859-1"?>
<!-- Generator: Adobe Illustrator 19.0.0, SVG Export Plug-In . SVG Version: 6.00 Build 0)  -->
<svg version="1.1" xmlns="http://www.w3.org/2000/svg" xmlns:xlink="http://www.w3.org/1999/xlink" x="0px" y="0px"
	 viewBox="0 0 128 128" style="enable-background:new 0 0 128 128;" xml:space="preserve">
<g id="_x35_">
	<polygon id="XMLID_81_" style="fill:#E8CF68;" points="92.73,73.468 86.208,57.246 72.767,46.066 75.299,43.022 83.097,49.509 
		79.314,40.098 82.986,38.621 86.846,48.222 88.043,37.961 91.975,38.42 90.785,48.629 97.9,40.88 100.816,43.558 93.873,51.119 
		103.866,47.477 105.221,51.196 95.627,54.693 106.003,56.237 105.421,60.154 93.817,58.426 102.949,66.022 100.417,69.066 
		92.618,62.578 96.402,71.991 	"/>
	<path id="XMLID_50_" style="fill:#DB8327;" d="M87.959,76.673c-0.852,0-1.709-0.052-2.568-0.155l0.631-5.241
		c4.197,0.505,8.343-0.653,11.671-3.265c3.327-2.612,5.438-6.363,5.944-10.562c0.506-4.199-0.653-8.344-3.265-11.671
		c-2.611-3.327-6.363-5.438-10.562-5.944c-8.674-1.055-16.571,5.158-17.615,13.827l-5.241-0.631
		c1.392-11.557,11.924-19.824,23.487-18.436c5.599,0.675,10.6,3.489,14.082,7.925c3.483,4.436,5.028,9.963,4.354,15.562
		c-0.675,5.599-3.49,10.6-7.926,14.082C97.198,75.113,92.66,76.673,87.959,76.673z"/>
	<polygon id="XMLID_31_" style="fill:#E1692B;" points="74.788,126.021 34.542,126.021 25.305,81.155 82.706,81.155 	"/>
	<polygon id="XMLID_34_" style="fill:#D5C23D;" points="74.788,126.021 34.542,126.021 30.583,100.289 80.067,100.289 	"/>
	<path id="XMLID_116_" d="M62.558,52.784l6.277-50.559c0.135-1.085-0.636-2.074-1.72-2.209c-1.089-0.14-2.075,0.636-2.209,1.72
		l-6.338,51.048H18.966L32.895,128h43.539l13.929-75.216H62.558z M73.142,124.041H36.188L23.725,56.743h34.352l-5.376,43.302
		c-0.135,1.085,0.636,2.074,1.72,2.209c0.083,0.01,0.166,0.015,0.247,0.015c0.985,0,1.838-0.733,1.962-1.735l5.437-43.79h23.538
		L73.142,124.041z"/>
</g>
<g id="Layer_1">
</g>
</svg>
