<svg version="1.2" xmlns="http://www.w3.org/2000/svg" viewBox="0 0 128 128" width="128" height="128">
	<title>5-svg</title>
	<style>
		.s0 { fill: #e8cf68 } 
		.s1 { fill: #db8327 } 
		.s2 { fill: #e1692b } 
		.s3 { fill: #d5c23d } 
		.s4 { fill: #000000 } 
	</style>
	<g id="_x35_">
		<path id="XMLID_81_" class="s0" d="m103.7 73.5l-6.5-16.3-13.4-11.1 2.5-3.1 7.8 6.5-3.8-9.4 3.7-1.5 3.8 9.6 1.2-10.2 4 0.4-1.2 10.2 7.1-7.7 2.9 2.7-6.9 7.5 10-3.6 1.3 3.7-9.6 3.5 10.4 1.5-0.6 4-11.6-1.8 9.1 7.6-2.5 3.1-7.8-6.5 3.8 9.4z"/>
		<path id="XMLID_50_" class="s1" d="m100 76.7q-1.3 0-2.6-0.2l0.6-5.2c4.2 0.5 8.4-0.7 11.7-3.3 3.3-2.6 5.4-6.4 5.9-10.6 0.5-4.1-0.6-8.3-3.2-11.6-2.6-3.3-6.4-5.5-10.6-6-8.7-1-16.6 5.2-17.6 13.9l-5.2-0.7c1.3-11.5 11.9-19.8 23.4-18.4 5.6 0.7 10.6 3.5 14.1 7.9 3.5 4.5 5.1 10 4.4 15.6-0.7 5.6-3.5 10.6-7.9 14.1-3.8 2.9-8.3 4.5-13 4.5z"/>
		<path id="XMLID_31_" class="s2" d="m87.8 126h-40.3l-9.2-44.8h57.4z"/>
		<path id="XMLID_34_" class="s3" d="m85.8 126h-40.3l-3.9-25.7h49.5z"/>
		<path id="XMLID_116_" fill-rule="evenodd" class="s4" d="m102.4 52.8l-14 75.2h-43.5l-13.9-75.2h39.6l6.3-51.1c0.1-1 1.1-1.8 2.2-1.7 1.1 0.2 1.9 1.1 1.7 2.2l-6.2 50.6zm-4.8 3.9h-23.5l-5.5 43.8c-0.1 1-1 1.8-1.9 1.8q-0.2 0-0.3 0c-1.1-0.2-1.8-1.2-1.7-2.3l5.4-43.3h-34.4l12.5 67.3h36.9z"/>
	</g>
	<g id="Layer_1">
	</g>
</svg>